<svg width="112" height="47" viewBox="0 0 112 47" fill="none" xmlns="http://www.w3.org/2000/svg">
<path d="M56.4336 2.98438H59.3398L60.6875 15.0781L60.8398 17.9023H61.1328L61.4141 14.7266L63.5703 2.98438H65.9961L68.0586 14.7266L68.293 17.9023H68.5977L68.7383 15.0781L69.9688 2.98438H72.8867L70.0859 23H67.0039L65.3516 13.3789L64.8359 9.19531H64.6016L64.0977 13.3789L62.3633 23H59.3164L56.4336 2.98438ZM77.2578 2.98438H80.75L84.4531 23H81.3828L80.832 19.4141H77.1758L76.6484 23H73.5664L77.2578 2.98438ZM80.4805 17.1289L79.0742 7.15625H78.9453L77.5273 17.1289H80.4805ZM88.7305 12.9219L85.0742 2.98438H88.3203L90.1836 9.38281H90.3008L92.1641 2.98438H95.3047L91.6367 12.9336L95.3047 23H92.1758L90.2773 16.5664H90.0781L88.0977 23H85.0742L88.7305 12.9219ZM57.7109 24.9844H60.7461C61.1289 24.9844 61.5469 25.0039 62 25.043C62.4609 25.0742 62.918 25.1562 63.3711 25.2891C63.832 25.4141 64.2734 25.6094 64.6953 25.875C65.125 26.1406 65.5039 26.5039 65.832 26.9648C66.1602 27.418 66.4219 27.9883 66.6172 28.6758C66.8203 29.3633 66.9219 30.1992 66.9219 31.1836V31.8867C66.9219 32.957 66.8281 33.875 66.6406 34.6406C66.4609 35.3984 66.2188 36.0391 65.9141 36.5625C65.6094 37.0781 65.2539 37.4922 64.8477 37.8047C64.4492 38.1172 64.0312 38.3555 63.5938 38.5195C63.1641 38.6758 62.7266 38.7812 62.2812 38.8359C61.8438 38.8828 61.4297 38.9062 61.0391 38.9062H60.7461V45H57.7109V24.9844ZM60.8984 36.6797C61.4453 36.6797 61.9062 36.6016 62.2812 36.4453C62.6562 36.2812 62.9531 36.0312 63.1719 35.6953C63.3984 35.3516 63.5586 34.9141 63.6523 34.3828C63.7539 33.8438 63.8047 33.1992 63.8047 32.4492V30.6445C63.8047 30.0508 63.7617 29.5391 63.6758 29.1094C63.5898 28.6719 63.4336 28.3125 63.207 28.0312C62.9883 27.75 62.6914 27.543 62.3164 27.4102C61.9414 27.2695 61.4688 27.1992 60.8984 27.1992H60.7461V36.6797H60.8984ZM69.2188 24.9844H72.5117C72.8867 24.9844 73.2969 25 73.7422 25.0312C74.1953 25.0625 74.6445 25.1406 75.0898 25.2656C75.543 25.3828 75.9766 25.5625 76.3906 25.8047C76.8125 26.0469 77.1836 26.3789 77.5039 26.8008C77.832 27.2227 78.0938 27.7539 78.2891 28.3945C78.4844 29.0273 78.582 29.7969 78.582 30.7031V31.207C78.582 32.7305 78.3633 33.9727 77.9258 34.9336C77.4883 35.8867 76.8438 36.5742 75.9922 36.9961L79.2031 45H75.9922L73.332 37.5117H72.1953V45H69.2188V24.9844ZM72.6523 35.3203C73.1836 35.3203 73.6328 35.2617 74 35.1445C74.3672 35.0273 74.6641 34.832 74.8906 34.5586C75.1172 34.2773 75.2812 33.9102 75.3828 33.457C75.4844 32.9961 75.5352 32.4297 75.5352 31.7578V30.1758C75.5352 29.6602 75.4883 29.2148 75.3945 28.8398C75.3008 28.4648 75.1406 28.1562 74.9141 27.9141C74.6953 27.6719 74.4023 27.4922 74.0352 27.375C73.668 27.2578 73.207 27.1992 72.6523 27.1992H72.1953V35.3203H72.6523ZM81.5 24.9844H88.918V27.375H84.5352V33.3633H87.9219V35.7539H84.5352V42.6094H89.0352V45H81.5V24.9844ZM90.4531 40.9453C90.4531 40.5156 90.4766 40.1211 90.5234 39.7617C90.5781 39.3945 90.6562 39 90.7578 38.5781H93.1133V39.5508C93.1133 40.0898 93.1445 40.5664 93.207 40.9805C93.2773 41.3945 93.3867 41.7461 93.5352 42.0352C93.6914 42.3164 93.8945 42.5312 94.1445 42.6797C94.4023 42.8203 94.7148 42.8906 95.082 42.8906C95.6602 42.8906 96.1016 42.7344 96.4062 42.4219C96.7109 42.1016 96.8633 41.6367 96.8633 41.0273C96.8633 40.7148 96.8398 40.4297 96.793 40.1719C96.7539 39.9062 96.6797 39.6445 96.5703 39.3867C96.4688 39.1289 96.3281 38.8594 96.1484 38.5781C95.9688 38.2891 95.7383 37.9688 95.457 37.6172L92.293 33.8555C91.7305 33.1367 91.2969 32.4141 90.9922 31.6875C90.6875 30.9531 90.5352 30.1719 90.5352 29.3438C90.5352 28.6797 90.6367 28.0703 90.8398 27.5156C91.0508 26.9609 91.3516 26.4844 91.7422 26.0859C92.1328 25.6797 92.6133 25.3672 93.1836 25.1484C93.7617 24.9219 94.4141 24.8086 95.1406 24.8086C96.0234 24.8086 96.7578 24.9336 97.3438 25.1836C97.9375 25.4336 98.4102 25.7617 98.7617 26.168C99.1133 26.5742 99.3594 27.0312 99.5 27.5391C99.6484 28.0391 99.7227 28.543 99.7227 29.0508C99.7227 29.4805 99.6875 29.8789 99.6172 30.2461C99.5547 30.6055 99.4805 31.0039 99.3945 31.4414H97.0508V30.4922C97.0508 29.4297 96.8984 28.6172 96.5938 28.0547C96.2891 27.4844 95.793 27.1992 95.1055 27.1992C94.5352 27.1992 94.1094 27.3594 93.8281 27.6797C93.5469 27.9922 93.4062 28.4141 93.4062 28.9453C93.4062 29.2266 93.4258 29.4805 93.4648 29.707C93.5117 29.9336 93.5742 30.1445 93.6523 30.3398C93.7383 30.5273 93.8398 30.7109 93.957 30.8906C94.0742 31.0703 94.207 31.2578 94.3555 31.4531L97.8828 35.7188C98.5234 36.5547 99.0156 37.3594 99.3594 38.1328C99.7031 38.8984 99.875 39.7109 99.875 40.5703C99.875 41.2812 99.7617 41.9219 99.5352 42.4922C99.3164 43.0625 99 43.5469 98.5859 43.9453C98.1719 44.3438 97.6719 44.6523 97.0859 44.8711C96.5 45.082 95.8398 45.1875 95.1055 45.1875C94.1992 45.1875 93.4453 45.0664 92.8438 44.8242C92.25 44.582 91.7734 44.2617 91.4141 43.8633C91.0625 43.4648 90.8125 43.0117 90.6641 42.5039C90.5234 41.9961 90.4531 41.4766 90.4531 40.9453ZM101.656 40.9453C101.656 40.5156 101.68 40.1211 101.727 39.7617C101.781 39.3945 101.859 39 101.961 38.5781H104.316V39.5508C104.316 40.0898 104.348 40.5664 104.41 40.9805C104.48 41.3945 104.59 41.7461 104.738 42.0352C104.895 42.3164 105.098 42.5312 105.348 42.6797C105.605 42.8203 105.918 42.8906 106.285 42.8906C106.863 42.8906 107.305 42.7344 107.609 42.4219C107.914 42.1016 108.066 41.6367 108.066 41.0273C108.066 40.7148 108.043 40.4297 107.996 40.1719C107.957 39.9062 107.883 39.6445 107.773 39.3867C107.672 39.1289 107.531 38.8594 107.352 38.5781C107.172 38.2891 106.941 37.9688 106.66 37.6172L103.496 33.8555C102.934 33.1367 102.5 32.4141 102.195 31.6875C101.891 30.9531 101.738 30.1719 101.738 29.3438C101.738 28.6797 101.84 28.0703 102.043 27.5156C102.254 26.9609 102.555 26.4844 102.945 26.0859C103.336 25.6797 103.816 25.3672 104.387 25.1484C104.965 24.9219 105.617 24.8086 106.344 24.8086C107.227 24.8086 107.961 24.9336 108.547 25.1836C109.141 25.4336 109.613 25.7617 109.965 26.168C110.316 26.5742 110.562 27.0312 110.703 27.5391C110.852 28.0391 110.926 28.543 110.926 29.0508C110.926 29.4805 110.891 29.8789 110.82 30.2461C110.758 30.6055 110.684 31.0039 110.598 31.4414H108.254V30.4922C108.254 29.4297 108.102 28.6172 107.797 28.0547C107.492 27.4844 106.996 27.1992 106.309 27.1992C105.738 27.1992 105.312 27.3594 105.031 27.6797C104.75 27.9922 104.609 28.4141 104.609 28.9453C104.609 29.2266 104.629 29.4805 104.668 29.707C104.715 29.9336 104.777 30.1445 104.855 30.3398C104.941 30.5273 105.043 30.7109 105.16 30.8906C105.277 31.0703 105.41 31.2578 105.559 31.4531L109.086 35.7188C109.727 36.5547 110.219 37.3594 110.562 38.1328C110.906 38.8984 111.078 39.7109 111.078 40.5703C111.078 41.2812 110.965 41.9219 110.738 42.4922C110.52 43.0625 110.203 43.5469 109.789 43.9453C109.375 44.3438 108.875 44.6523 108.289 44.8711C107.703 45.082 107.043 45.1875 106.309 45.1875C105.402 45.1875 104.648 45.0664 104.047 44.8242C103.453 44.582 102.977 44.2617 102.617 43.8633C102.266 43.4648 102.016 43.0117 101.867 42.5039C101.727 41.9961 101.656 41.4766 101.656 40.9453Z" fill="#C4C4C4"/>
<g filter="url(#filter0_b_635_92657)">
<rect y="0.0922852" width="0.368602" height="46.4439" fill="white" fill-opacity="0.3"/>
<path d="M2.94873 13.4541L4.60744 0.0922852L4.88389 46.2597L2.94873 32.6214V13.4541Z" fill="white" fill-opacity="0.3"/>
<path d="M13.6382 9.86016L18.3771 0.368652V45.891L13.6382 36.3074V9.86016Z" fill="white" fill-opacity="0.3"/>
<path d="M26.9082 5.71347L33.9116 0.0922852V46.0754L26.9082 40.7774V5.71347Z" fill="white" fill-opacity="0.3"/>
<path d="M19.9043 6.17401L25.8019 0.276367V46.6281L19.9043 38.4804V6.17401Z" fill="white" fill-opacity="0.3"/>
<path d="M34.741 5.25258L43.1267 0V46.2596L34.8332 40.5468L34.741 5.25258Z" fill="white" fill-opacity="0.3"/>
<path d="M7.83301 10.2285L11.0583 0.552734L11.4269 45.983L7.83301 36.3072V10.2285Z" fill="white" fill-opacity="0.3"/>
</g>
<defs>
<filter id="filter0_b_635_92657" x="-4" y="-4" width="51.127" height="54.6279" filterUnits="userSpaceOnUse" color-interpolation-filters="sRGB">
<feFlood flood-opacity="0" result="BackgroundImageFix"/>
<feGaussianBlur in="BackgroundImageFix" stdDeviation="2"/>
<feComposite in2="SourceAlpha" operator="in" result="effect1_backgroundBlur_635_92657"/>
<feBlend mode="normal" in="SourceGraphic" in2="effect1_backgroundBlur_635_92657" result="shape"/>
</filter>
</defs>
</svg>
