<svg width="100" height="409" viewBox="0 0 100 409" fill="none" xmlns="http://www.w3.org/2000/svg">
<g clip-path="url(#clip0_1027_93511)">
<g clip-path="url(#clip1_1027_93511)">
<rect x="57.5" y="29" width="10" height="346" fill="#0E0E0E"/>
<rect x="60.5" y="62.4839" width="4" height="279.032" fill="black"/>
</g>
<rect x="50.5" y="17.5" width="24" height="369" rx="1.5" stroke="black"/>
<path d="M15 368.619H39M15 326.871H39M15 285.123H39M15 243.374H39M15 201.626H39M15 159.878H39M15 118.129H39M15 76.3811H39M15 34.6328H39" stroke="#8D8D8D" stroke-width="2"/>
<rect x="12" y="196" width="10" height="10" fill="#343434"/>
<path d="M87.4907 382.315L87.4907 384.025L86.8008 384.025L86.8008 382.315C86.8008 381.984 86.748 381.716 86.6426 381.511C86.5371 381.306 86.3906 381.157 86.2031 381.063C86.0156 380.966 85.8018 380.918 85.5615 380.918C85.3418 380.918 85.1353 380.966 84.9419 381.063C84.7485 381.157 84.5933 381.306 84.4761 381.511C84.356 381.716 84.2959 381.984 84.2959 382.315L84.2959 383.827L90 383.827L90 384.675L83.6016 384.675L83.6016 382.315C83.6016 381.832 83.6851 381.423 83.8521 381.089C84.019 380.755 84.2505 380.502 84.5464 380.329C84.8394 380.156 85.1748 380.07 85.5527 380.07C85.9629 380.07 86.313 380.156 86.603 380.329C86.8931 380.502 87.1143 380.755 87.2666 381.089C87.416 381.423 87.4907 381.832 87.4907 382.315ZM83.6016 378.088L90 378.088L90 378.936L83.6016 378.936L83.6016 378.088ZM83.6016 374.313L90 374.313L90 375.148L83.6016 375.148L83.6016 374.313ZM83.6016 372.256L84.2959 372.256L84.2959 377.2L83.6016 377.2L83.6016 372.256ZM87.9653 367.567L87.9653 366.724C88.3696 366.768 88.7314 366.883 89.0508 367.071C89.3701 367.258 89.6235 367.523 89.811 367.866C89.9956 368.209 90.0879 368.637 90.0879 369.149C90.0879 369.524 90.0176 369.866 89.877 370.173C89.7363 370.478 89.5371 370.74 89.2793 370.96C89.0186 371.18 88.7065 371.35 88.3433 371.47C87.9771 371.587 87.5698 371.646 87.1216 371.646L86.4844 371.646C86.0361 371.646 85.6304 371.587 85.2671 371.47C84.9009 371.35 84.5874 371.178 84.3267 370.956C84.0659 370.73 83.8652 370.459 83.7246 370.143C83.584 369.826 83.5137 369.47 83.5137 369.075C83.5137 368.591 83.6045 368.183 83.7861 367.849C83.9678 367.515 84.2197 367.255 84.542 367.071C84.8613 366.883 85.2319 366.768 85.6538 366.724L85.6538 367.567C85.355 367.608 85.0986 367.685 84.8848 367.796C84.668 367.907 84.501 368.065 84.3838 368.271C84.2666 368.476 84.208 368.744 84.208 369.075C84.208 369.359 84.2622 369.609 84.3706 369.826C84.479 370.04 84.6328 370.22 84.832 370.367C85.0312 370.51 85.27 370.619 85.5483 370.692C85.8267 370.765 86.1357 370.802 86.4756 370.802L87.1216 370.802C87.4351 370.802 87.7295 370.77 88.0049 370.705C88.2803 370.638 88.522 370.537 88.73 370.402C88.938 370.267 89.1021 370.096 89.2222 369.888C89.3394 369.68 89.3979 369.434 89.3979 369.149C89.3979 368.789 89.3408 368.502 89.2266 368.288C89.1123 368.074 88.9482 367.913 88.7344 367.805C88.5205 367.693 88.2642 367.614 87.9653 367.567ZM86.3525 361.389L87.0425 361.389L87.0425 364.852L86.3525 364.852L86.3525 361.389ZM83.6016 364.72L90 364.72L90 365.568L83.6016 365.568L83.6016 364.72ZM83.6016 360.65L90 360.65L90 361.494L83.6016 361.494L83.6016 360.65ZM88.3828 353.5C88.2334 353.5 88.1016 353.524 87.9873 353.571C87.8701 353.615 87.7646 353.694 87.6709 353.808C87.5771 353.919 87.4878 354.075 87.4028 354.274C87.3179 354.47 87.2314 354.719 87.1436 355.021C87.0498 355.337 86.9458 355.623 86.8315 355.878C86.7144 356.133 86.5811 356.351 86.4316 356.533C86.2822 356.714 86.1108 356.854 85.9175 356.95C85.7241 357.047 85.5029 357.095 85.2539 357.095C85.0049 357.095 84.7749 357.044 84.564 356.941C84.353 356.839 84.1699 356.692 84.0146 356.502C83.8564 356.309 83.7334 356.079 83.6455 355.812C83.5576 355.545 83.5137 355.248 83.5137 354.92C83.5137 354.439 83.606 354.032 83.7905 353.698C83.9722 353.361 84.2109 353.105 84.5068 352.929C84.7998 352.753 85.1133 352.666 85.4473 352.666L85.4473 353.509C85.207 353.509 84.9946 353.561 84.8101 353.663C84.6226 353.766 84.4761 353.921 84.3706 354.129C84.2622 354.337 84.208 354.601 84.208 354.92C84.208 355.222 84.2534 355.471 84.3442 355.667C84.4351 355.863 84.5581 356.01 84.7134 356.106C84.8687 356.2 85.0459 356.247 85.2451 356.247C85.3799 356.247 85.5029 356.219 85.6143 356.164C85.7227 356.105 85.8237 356.016 85.9175 355.896C86.0112 355.772 86.0977 355.617 86.1768 355.43C86.2559 355.239 86.332 355.012 86.4053 354.749C86.5078 354.385 86.6221 354.072 86.748 353.808C86.874 353.544 87.0161 353.328 87.1743 353.158C87.3296 352.985 87.5068 352.857 87.7061 352.775C87.9023 352.69 88.125 352.648 88.374 352.648C88.6348 352.648 88.8706 352.701 89.0815 352.806C89.2925 352.912 89.4727 353.062 89.6221 353.259C89.7715 353.455 89.8872 353.691 89.9692 353.966C90.0483 354.239 90.0879 354.543 90.0879 354.88C90.0879 355.176 90.0469 355.468 89.9648 355.755C89.8828 356.039 89.7598 356.298 89.5957 356.533C89.4316 356.764 89.2295 356.95 88.9893 357.091C88.7461 357.229 88.4648 357.297 88.1455 357.297L88.1455 356.454C88.3652 356.454 88.5542 356.411 88.7124 356.326C88.8677 356.241 88.9966 356.125 89.0991 355.979C89.2017 355.83 89.2778 355.661 89.3276 355.474C89.3745 355.283 89.3979 355.085 89.3979 354.88C89.3979 354.584 89.3569 354.334 89.2749 354.129C89.1929 353.924 89.0757 353.769 88.9233 353.663C88.771 353.555 88.5908 353.5 88.3828 353.5ZM86.3525 347.388L87.0425 347.388L87.0425 350.851L86.3525 350.851L86.3525 347.388ZM83.6016 350.719L90 350.719L90 351.567L83.6016 351.567L83.6016 350.719ZM83.6016 346.649L90 346.649L90 347.493L83.6016 347.493L83.6016 346.649ZM83.6016 344.232L90 344.232L90 345.081L83.6016 345.081L83.6016 344.232ZM83.6016 341.842L90 341.842L90 342.69L83.6016 342.69L83.6016 341.842ZM86.48 339.161L87.1743 339.161L87.1743 342.026L86.48 342.026L86.48 339.161ZM83.6016 338.726L84.2959 338.726L84.2959 342.026L83.6016 342.026L83.6016 338.726ZM83.6016 335.263L90 335.263L90 336.098L83.6016 336.098L83.6016 335.263ZM83.6016 333.207L84.2959 333.207L84.2959 338.15L83.6016 338.15L83.6016 333.207Z" fill="#8D8D8D"/>
</g>
<defs>
<clipPath id="clip0_1027_93511">
<rect width="100" height="409" fill="white"/>
</clipPath>
<clipPath id="clip1_1027_93511">
<rect x="50" y="17" width="25" height="370" rx="2" fill="white"/>
</clipPath>
</defs>
</svg>
