<svg width="60" height="426" viewBox="0 0 60 426" fill="none" xmlns="http://www.w3.org/2000/svg">
<g clip-path="url(#clip0_1027_93568)">
<path d="M15 359.476H39M15 326.209H39M15 292.941H39M15 259.674H39M15 226.407H39M15 193.139H39M15 159.872H39M15 126.604H39M15 93.3368H39M15 60.0693H39" stroke="#8D8D8D"/>
<path d="M9.33705 64.628C8.73572 64.628 8.19672 64.474 7.72005 64.166C7.25072 63.858 6.87672 63.4107 6.59805 62.824C6.32672 62.2374 6.19105 61.526 6.19105 60.69C6.19105 59.854 6.32672 59.1427 6.59805 58.556C6.87672 57.9694 7.25072 57.522 7.72005 57.214C8.19672 56.906 8.73572 56.752 9.33705 56.752C9.93105 56.752 10.4664 56.906 10.943 57.214C11.4197 57.522 11.7937 57.9694 12.065 58.556C12.3364 59.1427 12.472 59.854 12.472 60.69C12.472 61.526 12.3364 62.2374 12.065 62.824C11.7937 63.4107 11.4197 63.858 10.943 64.166C10.4664 64.474 9.93105 64.628 9.33705 64.628ZM9.33705 63.649C9.74038 63.649 10.0924 63.539 10.393 63.319C10.701 63.099 10.9394 62.769 11.108 62.329C11.284 61.889 11.372 61.3427 11.372 60.69C11.372 60.0374 11.284 59.491 11.108 59.051C10.9394 58.611 10.701 58.281 10.393 58.061C10.0924 57.841 9.74038 57.731 9.33705 57.731C8.93372 57.731 8.57805 57.841 8.27005 58.061C7.96205 58.281 7.72005 58.611 7.54405 59.051C7.37538 59.491 7.29105 60.0374 7.29105 60.69C7.29105 61.3427 7.37538 61.889 7.54405 62.329C7.72005 62.769 7.96205 63.099 8.27005 63.319C8.57805 63.539 8.93372 63.649 9.33705 63.649Z" fill="#8D8D8D"/>
<path d="M9.9729 96.8819C9.2909 96.8819 8.7079 96.7316 8.2239 96.4309C7.7399 96.1303 7.36957 95.6976 7.1129 95.1329C6.86357 94.5609 6.7389 93.8643 6.7389 93.0429C6.7389 92.1703 6.8929 91.4333 7.2009 90.8319C7.5089 90.2306 7.9379 89.7759 8.4879 89.4679C9.0379 89.1599 9.66857 89.0059 10.3799 89.0059C10.7466 89.0059 11.0949 89.0426 11.4249 89.1159C11.7622 89.1893 12.0519 89.3029 12.2939 89.4569L11.8759 90.3149C11.6779 90.1756 11.4506 90.0803 11.1939 90.0289C10.9446 89.9776 10.6806 89.9519 10.4019 89.9519C9.61723 89.9519 8.9939 90.1976 8.5319 90.6889C8.0699 91.1729 7.8389 91.8953 7.8389 92.8559C7.8389 93.0099 7.84623 93.1933 7.8609 93.4059C7.87557 93.6186 7.91223 93.8276 7.9709 94.0329L7.5969 93.6589C7.7069 93.3216 7.87923 93.0393 8.1139 92.8119C8.3559 92.5773 8.6419 92.4049 8.9719 92.2949C9.30923 92.1776 9.67223 92.1189 10.0609 92.1189C10.5742 92.1189 11.0289 92.2143 11.4249 92.4049C11.8209 92.5956 12.1326 92.8669 12.3599 93.2189C12.5872 93.5636 12.7009 93.9743 12.7009 94.4509C12.7009 94.9423 12.5799 95.3713 12.3379 95.7379C12.0959 96.1046 11.7696 96.3869 11.3589 96.5849C10.9482 96.7829 10.4862 96.8819 9.9729 96.8819ZM9.9289 95.9909C10.2662 95.9909 10.5596 95.9286 10.8089 95.8039C11.0656 95.6793 11.2672 95.5069 11.4139 95.2869C11.5606 95.0596 11.6339 94.7956 11.6339 94.4949C11.6339 94.0403 11.4762 93.6809 11.1609 93.4169C10.8456 93.1456 10.4166 93.0099 9.8739 93.0099C9.5219 93.0099 9.2139 93.0759 8.9499 93.2079C8.6859 93.3399 8.4769 93.5196 8.3229 93.7469C8.17623 93.9669 8.1029 94.2199 8.1029 94.5059C8.1029 94.7699 8.17257 95.0156 8.3119 95.2429C8.45123 95.4629 8.65657 95.6426 8.9279 95.7819C9.19923 95.9213 9.5329 95.9909 9.9289 95.9909Z" fill="#8D8D8D"/>
<path d="M4.43846 129.969V122.709L4.91146 123.226H2.70046V122.269H5.52746V129.969H4.43846ZM7.09074 129.969V129.221L10.2257 126.196C10.5044 125.932 10.7097 125.701 10.8417 125.503C10.9811 125.298 11.0727 125.111 11.1167 124.942C11.1681 124.766 11.1937 124.598 11.1937 124.436C11.1937 124.04 11.0544 123.729 10.7757 123.501C10.4971 123.274 10.0901 123.16 9.55474 123.16C9.14408 123.16 8.77374 123.23 8.44374 123.369C8.11374 123.501 7.82774 123.71 7.58574 123.996L6.83774 123.347C7.13108 122.973 7.52341 122.687 8.01474 122.489C8.51341 122.284 9.05974 122.181 9.65374 122.181C10.1891 122.181 10.6547 122.269 11.0507 122.445C11.4467 122.614 11.7511 122.86 11.9637 123.182C12.1837 123.505 12.2937 123.886 12.2937 124.326C12.2937 124.576 12.2607 124.821 12.1947 125.063C12.1287 125.305 12.0041 125.562 11.8207 125.833C11.6374 126.105 11.3734 126.409 11.0287 126.746L8.23474 129.441L7.97074 129.012H12.6237V129.969H7.09074Z" fill="#8D8D8D"/>
<path d="M3.67576 164.066V156.806L4.14876 157.323H1.93776V156.366H4.76476V164.066H3.67576ZM9.45205 164.154C8.82872 164.154 8.28972 164.062 7.83505 163.879C7.38038 163.696 7.02838 163.435 6.77905 163.098C6.52972 162.753 6.40505 162.35 6.40505 161.888C6.40505 161.433 6.52238 161.048 6.75705 160.733C6.99905 160.41 7.34738 160.168 7.80205 160.007C8.25672 159.838 8.80672 159.754 9.45205 159.754C10.0974 159.754 10.6474 159.838 11.102 160.007C11.564 160.168 11.916 160.41 12.158 160.733C12.4 161.056 12.521 161.441 12.521 161.888C12.521 162.35 12.3964 162.753 12.147 163.098C11.8977 163.435 11.542 163.696 11.08 163.879C10.618 164.062 10.0754 164.154 9.45205 164.154ZM9.45205 163.263C10.068 163.263 10.5484 163.138 10.893 162.889C11.245 162.632 11.421 162.288 11.421 161.855C11.421 161.43 11.245 161.096 10.893 160.854C10.5484 160.605 10.068 160.48 9.45205 160.48C8.84338 160.48 8.36672 160.605 8.02205 160.854C7.67738 161.096 7.50505 161.43 7.50505 161.855C7.50505 162.288 7.67738 162.632 8.02205 162.889C8.36672 163.138 8.84338 163.263 9.45205 163.263ZM9.45205 160.348C8.86538 160.348 8.36672 160.271 7.95605 160.117C7.54538 159.956 7.23005 159.728 7.01005 159.435C6.79005 159.134 6.68005 158.779 6.68005 158.368C6.68005 157.935 6.79372 157.565 7.02105 157.257C7.25572 156.942 7.58205 156.7 8.00005 156.531C8.41805 156.362 8.90205 156.278 9.45205 156.278C10.0094 156.278 10.497 156.362 10.915 156.531C11.333 156.7 11.6594 156.942 11.894 157.257C12.1287 157.565 12.246 157.935 12.246 158.368C12.246 158.779 12.136 159.134 11.916 159.435C11.696 159.728 11.377 159.956 10.959 160.117C10.541 160.271 10.0387 160.348 9.45205 160.348ZM9.45205 159.644C9.98738 159.644 10.4054 159.534 10.706 159.314C11.014 159.094 11.168 158.793 11.168 158.412C11.168 158.023 11.0104 157.719 10.695 157.499C10.3797 157.279 9.96538 157.169 9.45205 157.169C8.93872 157.169 8.52805 157.279 8.22005 157.499C7.91938 157.719 7.76905 158.023 7.76905 158.412C7.76905 158.793 7.91572 159.094 8.20905 159.314C8.50972 159.534 8.92405 159.644 9.45205 159.644Z" fill="#8D8D8D"/>
<path d="M-0.0637031 197.241V196.493L3.0713 193.468C3.34996 193.204 3.5553 192.973 3.6873 192.775C3.82663 192.57 3.9183 192.383 3.9623 192.214C4.01363 192.038 4.0393 191.87 4.0393 191.708C4.0393 191.312 3.89996 191.001 3.6213 190.773C3.34263 190.546 2.93563 190.432 2.4003 190.432C1.98963 190.432 1.6193 190.502 1.2893 190.641C0.959297 190.773 0.673297 190.982 0.431297 191.268L-0.316703 190.619C-0.0233698 190.245 0.368964 189.959 0.860297 189.761C1.35896 189.556 1.9053 189.453 2.4993 189.453C3.03463 189.453 3.5003 189.541 3.8963 189.717C4.2923 189.886 4.59663 190.132 4.8093 190.454C5.0293 190.777 5.1393 191.158 5.1393 191.598C5.1393 191.848 5.1063 192.093 5.0403 192.335C4.9743 192.577 4.84963 192.834 4.6663 193.105C4.48296 193.377 4.21896 193.681 3.8743 194.018L1.0803 196.713L0.816297 196.284H5.4693V197.241H-0.0637031ZM6.0596 195.349V194.579L9.9976 189.541H11.1856L7.2806 194.579L6.7196 194.403H12.8686V195.349H6.0596ZM10.3386 197.241V195.349L10.3716 194.403V192.731H11.4056V197.241H10.3386Z" fill="#8D8D8D"/>
<path d="M2.25016 230.505C1.7075 230.505 1.1795 230.42 0.666164 230.252C0.160164 230.083 -0.254169 229.856 -0.576836 229.57L-0.0708359 228.701C0.185831 228.943 0.519497 229.141 0.930164 229.295C1.34083 229.449 1.78083 229.526 2.25016 229.526C2.82216 229.526 3.26583 229.405 3.58116 229.163C3.90383 228.913 4.06516 228.58 4.06516 228.162C4.06516 227.758 3.91116 227.436 3.60316 227.194C3.3025 226.944 2.82216 226.82 2.16216 226.82H1.54616V226.05L3.83416 223.234L3.98816 223.674H-0.224836V222.717H4.85716V223.465L2.58016 226.27L2.00816 225.929H2.37116C3.3025 225.929 3.99916 226.138 4.46116 226.556C4.9305 226.974 5.16516 227.505 5.16516 228.151C5.16516 228.583 5.05883 228.979 4.84616 229.339C4.6335 229.698 4.31083 229.984 3.87816 230.197C3.45283 230.402 2.91016 230.505 2.25016 230.505ZM9.33709 230.505C8.73575 230.505 8.19675 230.351 7.72009 230.043C7.25075 229.735 6.87675 229.287 6.59809 228.701C6.32675 228.114 6.19109 227.403 6.19109 226.567C6.19109 225.731 6.32675 225.019 6.59809 224.433C6.87675 223.846 7.25075 223.399 7.72009 223.091C8.19675 222.783 8.73575 222.629 9.33709 222.629C9.93109 222.629 10.4664 222.783 10.9431 223.091C11.4198 223.399 11.7938 223.846 12.0651 224.433C12.3364 225.019 12.4721 225.731 12.4721 226.567C12.4721 227.403 12.3364 228.114 12.0651 228.701C11.7938 229.287 11.4198 229.735 10.9431 230.043C10.4664 230.351 9.93109 230.505 9.33709 230.505ZM9.33709 229.526C9.74042 229.526 10.0924 229.416 10.3931 229.196C10.7011 228.976 10.9394 228.646 11.1081 228.206C11.2841 227.766 11.3721 227.219 11.3721 226.567C11.3721 225.914 11.2841 225.368 11.1081 224.928C10.9394 224.488 10.7011 224.158 10.3931 223.938C10.0924 223.718 9.74042 223.608 9.33709 223.608C8.93375 223.608 8.57809 223.718 8.27009 223.938C7.96209 224.158 7.72009 224.488 7.54409 224.928C7.37542 225.368 7.29109 225.914 7.29109 226.567C7.29109 227.219 7.37542 227.766 7.54409 228.206C7.72009 228.646 7.96209 228.976 8.27009 229.196C8.57809 229.416 8.93375 229.526 9.33709 229.526Z" fill="#8D8D8D"/>
<path d="M2.79802 263.68C2.25535 263.68 1.72735 263.595 1.21402 263.427C0.708016 263.258 0.293682 263.031 -0.0289844 262.745L0.477016 261.876C0.733682 262.118 1.06735 262.316 1.47802 262.47C1.88868 262.624 2.32868 262.701 2.79802 262.701C3.37002 262.701 3.81368 262.58 4.12902 262.338C4.45168 262.088 4.61302 261.755 4.61302 261.337C4.61302 260.933 4.45902 260.611 4.15102 260.369C3.85035 260.119 3.37002 259.995 2.71002 259.995H2.09402V259.225L4.38202 256.409L4.53602 256.849H0.323016V255.892H5.40502V256.64L3.12802 259.445L2.55602 259.104H2.91902C3.85035 259.104 4.54702 259.313 5.00902 259.731C5.47835 260.149 5.71302 260.68 5.71302 261.326C5.71302 261.758 5.60668 262.154 5.39402 262.514C5.18135 262.873 4.85868 263.159 4.42602 263.372C4.00068 263.577 3.45802 263.68 2.79802 263.68ZM9.97294 263.68C9.29094 263.68 8.70794 263.529 8.22394 263.229C7.73994 262.928 7.3696 262.495 7.11294 261.931C6.8636 261.359 6.73894 260.662 6.73894 259.841C6.73894 258.968 6.89294 258.231 7.20094 257.63C7.50894 257.028 7.93794 256.574 8.48794 256.266C9.03794 255.958 9.6686 255.804 10.3799 255.804C10.7466 255.804 11.0949 255.84 11.4249 255.914C11.7623 255.987 12.0519 256.101 12.2939 256.255L11.8759 257.113C11.6779 256.973 11.4506 256.878 11.1939 256.827C10.9446 256.775 10.6806 256.75 10.4019 256.75C9.61727 256.75 8.99394 256.995 8.53194 257.487C8.06994 257.971 7.83894 258.693 7.83894 259.654C7.83894 259.808 7.84627 259.991 7.86094 260.204C7.8756 260.416 7.91227 260.625 7.97094 260.831L7.59694 260.457C7.70694 260.119 7.87927 259.837 8.11394 259.61C8.35594 259.375 8.64194 259.203 8.97194 259.093C9.30927 258.975 9.67227 258.917 10.0609 258.917C10.5743 258.917 11.0289 259.012 11.4249 259.203C11.8209 259.393 12.1326 259.665 12.3599 260.017C12.5873 260.361 12.7009 260.772 12.7009 261.249C12.7009 261.74 12.5799 262.169 12.3379 262.536C12.0959 262.902 11.7696 263.185 11.3589 263.383C10.9483 263.581 10.4863 263.68 9.97294 263.68ZM9.92894 262.789C10.2663 262.789 10.5596 262.726 10.8089 262.602C11.0656 262.477 11.2673 262.305 11.4139 262.085C11.5606 261.857 11.6339 261.593 11.6339 261.293C11.6339 260.838 11.4763 260.479 11.1609 260.215C10.8456 259.943 10.4166 259.808 9.87394 259.808C9.52194 259.808 9.21394 259.874 8.94994 260.006C8.68594 260.138 8.47694 260.317 8.32294 260.545C8.17627 260.765 8.10294 261.018 8.10294 261.304C8.10294 261.568 8.1726 261.813 8.31194 262.041C8.45127 262.261 8.6566 262.44 8.92794 262.58C9.19927 262.719 9.53294 262.789 9.92894 262.789Z" fill="#8D8D8D"/>
<path d="M-0.246062 295.796V295.026L3.69194 289.988H4.87994L0.974938 295.026L0.413938 294.85H6.56294V295.796H-0.246062ZM4.03294 297.688V295.796L4.06594 294.85V293.178H5.09994V297.688H4.03294ZM7.09059 297.688V296.94L10.2256 293.915C10.5043 293.651 10.7096 293.42 10.8416 293.222C10.9809 293.017 11.0726 292.83 11.1166 292.661C11.1679 292.485 11.1936 292.317 11.1936 292.155C11.1936 291.759 11.0543 291.448 10.7756 291.22C10.4969 290.993 10.0899 290.879 9.55459 290.879C9.14393 290.879 8.77359 290.949 8.44359 291.088C8.11359 291.22 7.82759 291.429 7.58559 291.715L6.83759 291.066C7.13093 290.692 7.52326 290.406 8.01459 290.208C8.51326 290.003 9.05959 289.9 9.65359 289.9C10.1889 289.9 10.6546 289.988 11.0506 290.164C11.4466 290.333 11.7509 290.579 11.9636 290.901C12.1836 291.224 12.2936 291.605 12.2936 292.045C12.2936 292.295 12.2606 292.54 12.1946 292.782C12.1286 293.024 12.0039 293.281 11.8206 293.552C11.6373 293.824 11.3733 294.128 11.0286 294.465L8.23459 297.16L7.97059 296.731H12.6236V297.688H7.09059Z" fill="#8D8D8D"/>
<path d="M-1.12692 328.05V327.28L2.81108 322.242H3.99908L0.0940782 327.28L-0.466922 327.104H5.68208V328.05H-1.12692ZM3.15208 329.942V328.05L3.18508 327.104V325.432H4.21908V329.942H3.15208ZM9.4519 330.03C8.82857 330.03 8.28957 329.939 7.8349 329.755C7.38023 329.572 7.02823 329.312 6.7789 328.974C6.52957 328.63 6.4049 328.226 6.4049 327.764C6.4049 327.31 6.52223 326.925 6.7569 326.609C6.9989 326.287 7.34723 326.045 7.8019 325.883C8.25657 325.715 8.80657 325.63 9.4519 325.63C10.0972 325.63 10.6472 325.715 11.1019 325.883C11.5639 326.045 11.9159 326.287 12.1579 326.609C12.3999 326.932 12.5209 327.317 12.5209 327.764C12.5209 328.226 12.3962 328.63 12.1469 328.974C11.8976 329.312 11.5419 329.572 11.0799 329.755C10.6179 329.939 10.0752 330.03 9.4519 330.03ZM9.4519 329.139C10.0679 329.139 10.5482 329.015 10.8929 328.765C11.2449 328.509 11.4209 328.164 11.4209 327.731C11.4209 327.306 11.2449 326.972 10.8929 326.73C10.5482 326.481 10.0679 326.356 9.4519 326.356C8.84323 326.356 8.36657 326.481 8.0219 326.73C7.67723 326.972 7.5049 327.306 7.5049 327.731C7.5049 328.164 7.67723 328.509 8.0219 328.765C8.36657 329.015 8.84323 329.139 9.4519 329.139ZM9.4519 326.224C8.86523 326.224 8.36657 326.147 7.9559 325.993C7.54523 325.832 7.2299 325.605 7.0099 325.311C6.7899 325.011 6.6799 324.655 6.6799 324.244C6.6799 323.812 6.79357 323.441 7.0209 323.133C7.25557 322.818 7.5819 322.576 7.9999 322.407C8.4179 322.239 8.9019 322.154 9.4519 322.154C10.0092 322.154 10.4969 322.239 10.9149 322.407C11.3329 322.576 11.6592 322.818 11.8939 323.133C12.1286 323.441 12.2459 323.812 12.2459 324.244C12.2459 324.655 12.1359 325.011 11.9159 325.311C11.6959 325.605 11.3769 325.832 10.9589 325.993C10.5409 326.147 10.0386 326.224 9.4519 326.224ZM9.4519 325.52C9.98723 325.52 10.4052 325.41 10.7059 325.19C11.0139 324.97 11.1679 324.67 11.1679 324.288C11.1679 323.9 11.0102 323.595 10.6949 323.375C10.3796 323.155 9.96523 323.045 9.4519 323.045C8.93857 323.045 8.5279 323.155 8.2199 323.375C7.91923 323.595 7.7689 323.9 7.7689 324.288C7.7689 324.67 7.91557 324.97 8.2089 325.19C8.50957 325.41 8.9239 325.52 9.4519 325.52Z" fill="#8D8D8D"/>
<path d="M2.3392 364.127C1.79653 364.127 1.26853 364.043 0.755195 363.874C0.249195 363.705 -0.165138 363.478 -0.487805 363.192L0.0181953 362.323C0.274862 362.565 0.608529 362.763 1.0192 362.917C1.42986 363.071 1.8662 363.148 2.3282 363.148C2.91486 363.148 3.36586 363.023 3.6812 362.774C3.99653 362.525 4.1542 362.191 4.1542 361.773C4.1542 361.487 4.08453 361.238 3.9452 361.025C3.80586 360.812 3.56386 360.651 3.2192 360.541C2.88186 360.424 2.4162 360.365 1.8222 360.365H0.0731954L0.480195 356.339H4.8252V357.296H0.887195L1.4592 356.757L1.1402 359.936L0.568195 359.408H2.0532C2.8232 359.408 3.44286 359.507 3.9122 359.705C4.38153 359.903 4.72253 360.178 4.9352 360.53C5.14786 360.875 5.2542 361.274 5.2542 361.729C5.2542 362.169 5.14786 362.572 4.9352 362.939C4.72253 363.298 4.39986 363.588 3.9672 363.808C3.54186 364.021 2.9992 364.127 2.3392 364.127ZM6.0596 362.147V361.377L9.9976 356.339H11.1856L7.2806 361.377L6.7196 361.201H12.8686V362.147H6.0596ZM10.3386 364.039V362.147L10.3716 361.201V359.529H11.4056V364.039H10.3386Z" fill="#8D8D8D"/>
<rect x="22.5" y="25" width="17" height="370" rx="2" fill="#141414"/>
</g>
<path d="M51.6016 393.726L51.6016 392.904L56.8179 390.808L51.6016 388.716L51.6016 387.89L58 390.491L58 391.133L51.6016 393.726ZM51.6016 393.994L51.6016 393.269L55.5039 393.15L58 393.15L58 393.994L51.6016 393.994ZM51.6016 388.351L51.6016 387.626L58 387.626L58 388.47L55.5039 388.47L51.6016 388.351ZM52.1685 383.688L58 385.807L58 386.672L51.6016 384.233L51.6016 383.675L52.1685 383.688ZM58 381.913L52.1685 384.036L51.6016 384.049L51.6016 383.491L58 381.043L58 381.913ZM55.6313 382.023L56.3257 382.023L56.3257 385.618L55.6313 385.618L55.6313 382.023ZM56.3828 376.776C56.2334 376.776 56.1016 376.799 55.9873 376.846C55.8701 376.89 55.7646 376.969 55.6709 377.083C55.5771 377.195 55.4878 377.35 55.4028 377.549C55.3179 377.746 55.2314 377.995 55.1436 378.296C55.0498 378.613 54.9458 378.898 54.8315 379.153C54.7144 379.408 54.5811 379.626 54.4316 379.808C54.2822 379.99 54.1108 380.129 53.9175 380.226C53.7241 380.322 53.5029 380.371 53.2539 380.371C53.0049 380.371 52.7749 380.319 52.564 380.217C52.353 380.114 52.1699 379.968 52.0146 379.777C51.8564 379.584 51.7334 379.354 51.6455 379.087C51.5576 378.821 51.5137 378.523 51.5137 378.195C51.5137 377.715 51.606 377.308 51.7905 376.974C51.9722 376.637 52.2109 376.38 52.5068 376.205C52.7998 376.029 53.1133 375.941 53.4473 375.941L53.4473 376.785C53.207 376.785 52.9946 376.836 52.8101 376.938C52.6226 377.041 52.4761 377.196 52.3706 377.404C52.2622 377.612 52.208 377.876 52.208 378.195C52.208 378.497 52.2534 378.746 52.3442 378.942C52.4351 379.139 52.5581 379.285 52.7134 379.382C52.8687 379.476 53.0459 379.522 53.2451 379.522C53.3799 379.522 53.5029 379.495 53.6143 379.439C53.7227 379.38 53.8237 379.291 53.9175 379.171C54.0112 379.048 54.0977 378.893 54.1768 378.705C54.2559 378.515 54.332 378.288 54.4053 378.024C54.5078 377.661 54.6221 377.347 54.748 377.083C54.874 376.82 55.0161 376.603 55.1743 376.433C55.3296 376.26 55.5068 376.133 55.7061 376.051C55.9023 375.966 56.125 375.923 56.374 375.923C56.6348 375.923 56.8706 375.976 57.0815 376.082C57.2925 376.187 57.4727 376.338 57.6221 376.534C57.7715 376.73 57.8872 376.966 57.9692 377.242C58.0483 377.514 58.0879 377.819 58.0879 378.156C58.0879 378.452 58.0469 378.743 57.9648 379.03C57.8828 379.314 57.7598 379.574 57.5957 379.808C57.4316 380.04 57.2295 380.226 56.9893 380.366C56.7461 380.504 56.4648 380.573 56.1455 380.573L56.1455 379.729C56.3652 379.729 56.5542 379.687 56.7124 379.602C56.8677 379.517 56.9966 379.401 57.0991 379.254C57.2017 379.105 57.2778 378.937 57.3276 378.749C57.3745 378.559 57.3979 378.361 57.3979 378.156C57.3979 377.86 57.3569 377.609 57.2749 377.404C57.1929 377.199 57.0757 377.044 56.9233 376.938C56.771 376.83 56.5908 376.776 56.3828 376.776ZM51.6016 372.478L58 372.478L58 373.313L51.6016 373.313L51.6016 372.478ZM51.6016 370.421L52.2959 370.421L52.2959 375.365L51.6016 375.365L51.6016 370.421ZM57.3101 365.407L58 365.407L58 368.795L57.3101 368.795L57.3101 365.407ZM51.6016 368.624L58 368.624L58 369.472L51.6016 369.472L51.6016 368.624ZM54.3525 365.855L55.0425 365.855L55.0425 368.795L54.3525 368.795L54.3525 365.855ZM51.6016 365.451L52.2959 365.451L52.2959 368.795L51.6016 368.795L51.6016 365.451ZM51.6016 364.357L51.6016 362.239C51.6016 361.758 51.6748 361.353 51.8213 361.021C51.9678 360.687 52.1846 360.434 52.4717 360.261C52.7559 360.085 53.106 359.998 53.522 359.998C53.8149 359.998 54.083 360.058 54.3262 360.178C54.5664 360.295 54.7715 360.465 54.9414 360.687C55.1084 360.907 55.2329 361.171 55.3149 361.479L55.4072 361.716L55.4072 363.707L54.7173 363.715L54.7173 362.212C54.7173 361.908 54.6645 361.654 54.5591 361.452C54.4507 361.25 54.3057 361.098 54.124 360.995C53.9424 360.893 53.7417 360.841 53.522 360.841C53.2759 360.841 53.0605 360.89 52.876 360.986C52.6914 361.083 52.5493 361.235 52.4497 361.443C52.3472 361.648 52.2959 361.914 52.2959 362.239L52.2959 363.509L58 363.509L58 364.357L51.6016 364.357ZM58 360.617L55.0996 362.173L55.0952 361.29L57.9473 359.712L58 359.712L58 360.617ZM56.3828 353.168C56.2334 353.168 56.1016 353.192 55.9873 353.239C55.8701 353.283 55.7646 353.362 55.6709 353.476C55.5771 353.587 55.4878 353.743 55.4028 353.942C55.3179 354.138 55.2314 354.387 55.1436 354.689C55.0498 355.005 54.9458 355.291 54.8315 355.546C54.7144 355.801 54.5811 356.019 54.4316 356.201C54.2822 356.382 54.1108 356.521 53.9175 356.618C53.7241 356.715 53.5029 356.763 53.2539 356.763C53.0049 356.763 52.7749 356.712 52.564 356.609C52.353 356.507 52.1699 356.36 52.0146 356.17C51.8564 355.977 51.7334 355.747 51.6455 355.48C51.5576 355.213 51.5137 354.916 51.5137 354.588C51.5137 354.107 51.606 353.7 51.7905 353.366C51.9722 353.029 52.2109 352.773 52.5068 352.597C52.7998 352.421 53.1133 352.333 53.4473 352.333L53.4473 353.177C53.207 353.177 52.9946 353.229 52.8101 353.331C52.6226 353.434 52.4761 353.589 52.3706 353.797C52.2622 354.005 52.208 354.269 52.208 354.588C52.208 354.89 52.2534 355.139 52.3442 355.335C52.4351 355.531 52.5581 355.678 52.7134 355.774C52.8687 355.868 53.0459 355.915 53.2451 355.915C53.3799 355.915 53.5029 355.887 53.6143 355.832C53.7227 355.773 53.8237 355.684 53.9175 355.563C54.0112 355.44 54.0977 355.285 54.1768 355.098C54.2559 354.907 54.332 354.68 54.4053 354.417C54.5078 354.053 54.6221 353.74 54.748 353.476C54.874 353.212 55.0161 352.996 55.1743 352.826C55.3296 352.653 55.5068 352.525 55.7061 352.443C55.9023 352.358 56.125 352.316 56.374 352.316C56.6348 352.316 56.8706 352.369 57.0815 352.474C57.2925 352.58 57.4727 352.73 57.6221 352.927C57.7715 353.123 57.8872 353.359 57.9692 353.634C58.0483 353.907 58.0879 354.211 58.0879 354.548C58.0879 354.844 58.0469 355.136 57.9648 355.423C57.8828 355.707 57.7598 355.966 57.5957 356.201C57.4316 356.432 57.2295 356.618 56.9893 356.759C56.7461 356.896 56.4648 356.965 56.1455 356.965L56.1455 356.122C56.3652 356.122 56.5542 356.079 56.7124 355.994C56.8677 355.909 56.9966 355.793 57.0991 355.647C57.2017 355.498 57.2778 355.329 57.3276 355.142C57.3745 354.951 57.3979 354.753 57.3979 354.548C57.3979 354.252 57.3569 354.002 57.2749 353.797C57.1929 353.592 57.0757 353.437 56.9233 353.331C56.771 353.223 56.5908 353.168 56.3828 353.168ZM51.6016 348.871L58 348.871L58 349.706L51.6016 349.706L51.6016 348.871ZM51.6016 346.814L52.2959 346.814L52.2959 351.758L51.6016 351.758L51.6016 346.814ZM57.3101 341.8L58 341.8L58 345.188L57.3101 345.188L57.3101 341.8ZM51.6016 345.017L58 345.017L58 345.865L51.6016 345.865L51.6016 345.017ZM54.3525 342.248L55.0425 342.248L55.0425 345.188L54.3525 345.188L54.3525 342.248ZM51.6016 341.844L52.2959 341.844L52.2959 345.188L51.6016 345.188L51.6016 341.844ZM51.6016 340.75L51.6016 338.631C51.6016 338.151 51.6748 337.745 51.8213 337.414C51.9678 337.08 52.1846 336.827 52.4717 336.654C52.7559 336.478 53.106 336.39 53.522 336.39C53.8149 336.39 54.083 336.45 54.3262 336.57C54.5664 336.687 54.7715 336.857 54.9414 337.08C55.1084 337.3 55.2329 337.563 55.3149 337.871L55.4072 338.108L55.4072 340.099L54.7173 340.108L54.7173 338.605C54.7173 338.3 54.6645 338.047 54.5591 337.845C54.4507 337.643 54.3057 337.49 54.124 337.388C53.9424 337.285 53.7417 337.234 53.522 337.234C53.2759 337.234 53.0605 337.282 52.876 337.379C52.6914 337.476 52.5493 337.628 52.4497 337.836C52.3472 338.041 52.2959 338.306 52.2959 338.631L52.2959 339.901L58 339.901L58 340.75L51.6016 340.75ZM58 337.01L55.0996 338.565L55.0952 337.682L57.9473 336.104L58 336.104L58 337.01ZM57.3101 331.139L58 331.139L58 334.527L57.3101 334.527L57.3101 331.139ZM51.6016 334.355L58 334.355L58 335.204L51.6016 335.204L51.6016 334.355ZM54.3525 331.587L55.0425 331.587L55.0425 334.527L54.3525 334.527L54.3525 331.587ZM51.6016 331.183L52.2959 331.183L52.2959 334.527L51.6016 334.527L51.6016 331.183ZM54.5986 325.162L55.0029 325.162C55.4834 325.162 55.9141 325.222 56.2949 325.342C56.6758 325.462 56.9995 325.635 57.2661 325.861C57.5327 326.086 57.7363 326.357 57.877 326.674C58.0176 326.987 58.0879 327.339 58.0879 327.729C58.0879 328.106 58.0176 328.454 57.877 328.77C57.7363 329.083 57.5327 329.356 57.2661 329.587C56.9995 329.816 56.6758 329.993 56.2949 330.119C55.9141 330.245 55.4834 330.308 55.0029 330.308L54.5986 330.308C54.1182 330.308 53.689 330.247 53.311 330.124C52.9302 329.998 52.6064 329.82 52.3398 329.592C52.0703 329.363 51.8652 329.092 51.7246 328.779C51.584 328.462 51.5137 328.115 51.5137 327.737C51.5137 327.348 51.584 326.996 51.7246 326.683C51.8652 326.366 52.0703 326.095 52.3398 325.87C52.6064 325.641 52.9302 325.467 53.311 325.347C53.689 325.224 54.1182 325.162 54.5986 325.162ZM55.0029 326.001L54.5898 326.001C54.209 326.001 53.8721 326.041 53.5791 326.12C53.2861 326.196 53.04 326.309 52.8408 326.458C52.6416 326.608 52.4907 326.791 52.3882 327.008C52.2856 327.222 52.2344 327.465 52.2344 327.737C52.2344 328.001 52.2856 328.24 52.3882 328.454C52.4907 328.665 52.6416 328.846 52.8408 328.999C53.04 329.148 53.2861 329.264 53.5791 329.346C53.8721 329.428 54.209 329.469 54.5898 329.469L55.0029 329.469C55.3867 329.469 55.7266 329.428 56.0225 329.346C56.3154 329.264 56.563 329.146 56.7651 328.994C56.9644 328.839 57.1152 328.656 57.2178 328.445C57.3203 328.231 57.3716 327.992 57.3716 327.729C57.3716 327.453 57.3203 327.208 57.2178 326.995C57.1152 326.781 56.9644 326.601 56.7651 326.454C56.563 326.305 56.3154 326.192 56.0225 326.116C55.7266 326.04 55.3867 326.001 55.0029 326.001ZM54.5986 316.733L55.0029 316.733C55.4834 316.733 55.9141 316.793 56.2949 316.914C56.6758 317.034 56.9995 317.207 57.2661 317.432C57.5327 317.658 57.7363 317.929 57.8769 318.245C58.0176 318.559 58.0879 318.91 58.0879 319.3C58.0879 319.678 58.0176 320.025 57.8769 320.341C57.7363 320.655 57.5327 320.927 57.2661 321.159C56.9995 321.387 56.6758 321.564 56.2949 321.69C55.9141 321.816 55.4834 321.879 55.0029 321.879L54.5986 321.879C54.1182 321.879 53.689 321.818 53.311 321.695C52.9302 321.569 52.6064 321.392 52.3398 321.163C52.0703 320.935 51.8652 320.664 51.7246 320.35C51.584 320.034 51.5137 319.687 51.5137 319.309C51.5137 318.919 51.584 318.567 51.7246 318.254C51.8652 317.937 52.0703 317.667 52.3398 317.441C52.6064 317.212 52.9302 317.038 53.311 316.918C53.689 316.795 54.1182 316.733 54.5986 316.733ZM55.0029 317.573L54.5898 317.573C54.209 317.573 53.8721 317.612 53.5791 317.691C53.2861 317.768 53.04 317.88 52.8408 318.03C52.6416 318.179 52.4907 318.362 52.3882 318.579C52.2856 318.793 52.2344 319.036 52.2344 319.309C52.2344 319.572 52.2856 319.811 52.3882 320.025C52.4907 320.236 52.6416 320.417 52.8408 320.57C53.04 320.719 53.2861 320.835 53.5791 320.917C53.8721 320.999 54.209 321.04 54.5898 321.04L55.0029 321.04C55.3867 321.04 55.7266 320.999 56.0225 320.917C56.3154 320.835 56.563 320.718 56.7651 320.565C56.9644 320.41 57.1152 320.227 57.2178 320.016C57.3203 319.802 57.3716 319.563 57.3716 319.3C57.3716 319.024 57.3203 318.78 57.2178 318.566C57.1152 318.352 56.9644 318.172 56.7651 318.025C56.563 317.876 56.3154 317.763 56.0225 317.687C55.7266 317.611 55.3867 317.573 55.0029 317.573ZM51.6016 311.803L51.6016 310.959L55.9302 310.959C56.4106 310.959 56.8105 311.066 57.1299 311.28C57.4492 311.494 57.6894 311.778 57.8506 312.132C58.0088 312.484 58.0879 312.866 58.0879 313.279C58.0879 313.713 58.0088 314.105 57.8506 314.457C57.6894 314.806 57.4492 315.083 57.1299 315.288C56.8105 315.49 56.4106 315.591 55.9302 315.591L51.6016 315.591L51.6016 314.751L55.9302 314.751C56.2642 314.751 56.5395 314.69 56.7563 314.567C56.9731 314.444 57.1343 314.272 57.2397 314.053C57.3452 313.83 57.3979 313.572 57.3979 313.279C57.3979 312.983 57.3452 312.726 57.2397 312.506C57.1343 312.283 56.9731 312.11 56.7563 311.987C56.5395 311.864 56.2642 311.803 55.9302 311.803L51.6016 311.803ZM51.6016 307.263L58 307.263L58 308.098L51.6016 308.098L51.6016 307.263ZM51.6016 305.207L52.2959 305.207L52.2959 310.15L51.6016 310.15L51.6016 305.207Z" fill="#8D8D8D"/>
<defs>
<clipPath id="clip0_1027_93568">
<rect width="44" height="426" fill="white"/>
</clipPath>
</defs>
</svg>
